<?xml version="1.0" encoding="utf-8"?>
<!-- Generator: Adobe Illustrator 24.1.1, SVG Export Plug-In . SVG Version: 6.00 Build 0)  -->
<svg version="1.1" id="Layer_1" xmlns="http://www.w3.org/2000/svg" xmlns:xlink="http://www.w3.org/1999/xlink" x="0px" y="0px"
	 viewBox="0 0 512 512" style="enable-background:new 0 0 512 512;" xml:space="preserve">
<style type="text/css">
	.st0{fill-rule:evenodd;clip-rule:evenodd;}
</style>
<g>
	<path class="st0" d="M201.2,256c0-10.1-8.2-18.3-18.3-18.3H18.3C8.2,237.7,0,245.9,0,256c0,10.1,8.2,18.3,18.3,18.3h164.5
		C193,274.3,201.2,266.1,201.2,256z"/>
	<path class="st0" d="M104.4,169.9c-7.1-7.1-18.7-7.2-25.9,0l0,0L5.4,243c-7.1,7.1-7.2,18.7,0,25.9l0,0l73.1,73.1
		c7.2,7.1,18.7,7.1,25.9,0c7.1-7.2,7.1-18.7,0-25.9L44.2,256l60.2-60.2C111.5,188.7,111.6,177.1,104.4,169.9L104.4,169.9z
		 M310.8,256c0-10.1,8.2-18.3,18.3-18.3h164.5c10.1,0,18.3,8.2,18.3,18.3c0,10.1-8.2,18.3-18.3,18.3H329.1
		C319,274.3,310.8,266.1,310.8,256z"/>
	<path class="st0" d="M407.6,169.9c7.1-7.1,18.7-7.2,25.9,0l0,0l73.1,73.1c7.1,7.1,7.2,18.7,0,25.9l0,0l-73.1,73.1
		c-7.2,7.1-18.7,7.1-25.9,0c-7.1-7.2-7.1-18.7,0-25.9l60.2-60.2l-60.2-60.2C400.5,188.7,400.4,177.1,407.6,169.9L407.6,169.9z
		 M256,310.8c-10.1,0-18.3,8.2-18.3,18.3v164.5c0,10.1,8.2,18.3,18.3,18.3c10.1,0,18.3-8.2,18.3-18.3V329.1
		C274.3,319,266.1,310.8,256,310.8z"/>
	<path class="st0" d="M169.9,407.6c-7.1,7.1-7.2,18.7,0,25.9l0,0l73.1,73.1c7.1,7.1,18.7,7.2,25.9,0l0,0l73.1-73.1
		c7.1-7.2,7.1-18.7,0-25.9c-7.2-7.1-18.7-7.1-25.9,0L256,467.8l-60.2-60.2C188.7,400.5,177.1,400.4,169.9,407.6L169.9,407.6z
		 M256,201.2c-10.1,0-18.3-8.2-18.3-18.3V18.3C237.7,8.2,245.9,0,256,0c10.1,0,18.3,8.2,18.3,18.3v164.5
		C274.3,193,266.1,201.2,256,201.2z"/>
	<path class="st0" d="M169.9,104.4c-7.1-7.1-7.2-18.7,0-25.9l0,0L243,5.4c7.1-7.1,18.7-7.2,25.9,0l0,0l73.1,73.1
		c7.1,7.2,7.1,18.7,0,25.9c-7.2,7.1-18.7,7.1-25.9,0L256,44.2l-60.2,60.2C188.7,111.5,177.1,111.6,169.9,104.4L169.9,104.4z"/>
</g>
</svg>
