<svg width="18" height="14" viewBox="0 0 18 14" fill="none" xmlns="http://www.w3.org/2000/svg">
<path d="M1.5 5.33341H16.5M4.83333 9.50008H4.84167M8.16667 9.50008H9.83333M1.5 3.66675C1.5 3.00371 1.76339 2.36782 2.23223 1.89898C2.70107 1.43014 3.33696 1.16675 4 1.16675H14C14.663 1.16675 15.2989 1.43014 15.7678 1.89898C16.2366 2.36782 16.5 3.00371 16.5 3.66675V10.3334C16.5 10.9965 16.2366 11.6323 15.7678 12.1012C15.2989 12.57 14.663 12.8334 14 12.8334H4C3.33696 12.8334 2.70107 12.57 2.23223 12.1012C1.76339 11.6323 1.5 10.9965 1.5 10.3334V3.66675Z" stroke="black" stroke-width="1.66667" stroke-linecap="round" stroke-linejoin="round"/>
</svg>
