<svg width="20" height="17" viewBox="0 0 20 17" fill="none" xmlns="http://www.w3.org/2000/svg">
<path d="M17.5625 3.32813H14.6406L13.9445 1.37734C13.8964 1.24386 13.8083 1.12847 13.6922 1.04695C13.5761 0.965431 13.4376 0.92175 13.2957 0.921875H6.7043C6.41426 0.921875 6.1543 1.10449 6.05762 1.37734L5.35938 3.32813H2.4375C1.48789 3.32813 0.71875 4.09727 0.71875 5.04688V14.8438C0.71875 15.7934 1.48789 16.5625 2.4375 16.5625H17.5625C18.5121 16.5625 19.2812 15.7934 19.2812 14.8438V5.04688C19.2812 4.09727 18.5121 3.32813 17.5625 3.32813ZM17.7344 14.8438C17.7344 14.9383 17.657 15.0156 17.5625 15.0156H2.4375C2.34297 15.0156 2.26562 14.9383 2.26562 14.8438V5.04688C2.26562 4.95234 2.34297 4.875 2.4375 4.875H6.44863L6.81602 3.84805L7.30801 2.46875H12.6898L13.1818 3.84805L13.5492 4.875H17.5625C17.657 4.875 17.7344 4.95234 17.7344 5.04688V14.8438ZM10 6.25C8.10078 6.25 6.5625 7.78828 6.5625 9.6875C6.5625 11.5867 8.10078 13.125 10 13.125C11.8992 13.125 13.4375 11.5867 13.4375 9.6875C13.4375 7.78828 11.8992 6.25 10 6.25ZM10 11.75C8.86133 11.75 7.9375 10.8262 7.9375 9.6875C7.9375 8.54883 8.86133 7.625 10 7.625C11.1387 7.625 12.0625 8.54883 12.0625 9.6875C12.0625 10.8262 11.1387 11.75 10 11.75Z" fill="#769548"/>
</svg>
