<svg width="17" height="20" viewBox="0 0 17 20" fill="none" xmlns="http://www.w3.org/2000/svg">
<path d="M14.3447 0C14.8752 0 15.3839 0.210714 15.7589 0.585786C16.134 0.960859 16.3447 1.46957 16.3447 2V18C16.3447 18.5304 16.134 19.0391 15.7589 19.4142C15.3839 19.7893 14.8752 20 14.3447 20H2.34473C1.81429 20 1.30559 19.7893 0.930513 19.4142C0.55544 19.0391 0.344727 18.5304 0.344727 18V2C0.344727 1.46957 0.55544 0.960859 0.930513 0.585786C1.30559 0.210714 1.81429 0 2.34473 0H14.3447ZM8.34473 11H5.34473C5.07951 11 4.82516 11.1054 4.63762 11.2929C4.45008 11.4804 4.34473 11.7348 4.34473 12C4.34473 12.2652 4.45008 12.5196 4.63762 12.7071C4.82516 12.8946 5.07951 13 5.34473 13H8.34473C8.60994 13 8.8643 12.8946 9.05183 12.7071C9.23937 12.5196 9.34473 12.2652 9.34473 12C9.34473 11.7348 9.23937 11.4804 9.05183 11.2929C8.8643 11.1054 8.60994 11 8.34473 11ZM11.3447 6H5.34473C5.08985 6.00028 4.84469 6.09788 4.65936 6.27285C4.47402 6.44782 4.36249 6.68695 4.34755 6.94139C4.33262 7.19584 4.4154 7.44638 4.57899 7.64183C4.74258 7.83729 4.97463 7.9629 5.22773 7.993L5.34473 8H11.3447C11.5996 7.99972 11.8448 7.90212 12.0301 7.72715C12.2154 7.55218 12.327 7.31305 12.3419 7.05861C12.3568 6.80416 12.2741 6.55362 12.1105 6.35817C11.9469 6.16271 11.7148 6.0371 11.4617 6.007L11.3447 6Z" fill="#769548"/>
</svg>
