<svg width="17" height="18" viewBox="0 0 17 18" fill="none" xmlns="http://www.w3.org/2000/svg">
<path d="M9.00015 1.49983C9.11015 1.49983 9.21931 1.49983 9.32765 1.49983C8.25709 2.49459 7.56897 3.83303 7.38288 5.28251C7.1968 6.732 7.52453 8.20086 8.30909 9.43377C9.09365 10.6667 10.2855 11.5857 11.6773 12.0311C13.0692 12.4764 14.5731 12.42 15.9276 11.8715C15.4066 13.1252 14.555 14.214 13.4636 15.0217C12.3723 15.8294 11.0822 16.3257 9.7309 16.4577C8.37962 16.5896 7.01786 16.3523 5.79088 15.771C4.56391 15.1897 3.51774 14.2862 2.76397 13.157C2.0102 12.0277 1.5771 10.7151 1.51088 9.35897C1.44466 8.00288 1.7478 6.65424 2.38795 5.45693C3.02811 4.25961 3.98128 3.25852 5.14578 2.56044C6.31028 1.86237 7.64244 1.49349 9.00015 1.49316V1.49983Z" stroke="black" stroke-width="1.66667" stroke-linecap="round" stroke-linejoin="round"/>
</svg>
